<svg width="78" height="78" viewBox="0 0 78 78" fill="none" xmlns="http://www.w3.org/2000/svg">
<g clip-path="url(#clip0_1_3)">
<circle cx="39" cy="39" r="39" fill="#CE65FF"/>
<path d="M66.1667 37.3167V40C66.1631 46.2896 64.1264 52.4095 60.3605 57.447C56.5946 62.4845 51.3012 66.1697 45.2698 67.953C39.2383 69.7364 32.792 69.5222 26.8922 67.3425C20.9924 65.1629 15.9552 61.1345 12.5319 55.8581C9.10867 50.5818 7.4827 44.3402 7.89654 38.0642C8.31037 31.7883 10.7418 25.8143 14.8283 21.0331C18.9148 16.252 24.4373 12.9199 30.5722 11.5338C36.7071 10.1476 43.1258 10.7818 48.8708 13.3417" stroke="black" stroke-width="4" stroke-linecap="round" stroke-linejoin="round"/>
<path d="M66.1667 16.6667L37 45.8625L28.25 37.1125" stroke="black" stroke-width="4" stroke-linecap="round" stroke-linejoin="round"/>
</g>
<defs>
<clipPath id="clip0_1_3">
<rect width="78" height="78" fill="white"/>
</clipPath>
</defs>
</svg>
